<svg width="165" height="133" viewBox="0 0 165 133" fill="none" xmlns="http://www.w3.org/2000/svg">
<path opacity="0.4" d="M88.3167 122.805C77.8127 122.805 67.3086 120.499 59.3147 115.881C51.5371 111.392 47.2527 105.408 47.2527 99.0398C47.2527 92.6718 51.5371 86.6872 59.3147 82.1987C75.3088 72.9683 101.325 72.9683 117.319 82.1987C125.096 86.6872 129.381 92.6718 129.381 99.0398C129.381 105.408 125.096 111.386 117.319 115.881C109.325 120.499 98.8208 122.805 88.3167 122.805ZM88.3167 75.6082C77.8745 75.6082 67.4323 77.9019 59.4816 82.4893C51.8092 86.916 47.5865 92.7955 47.5865 99.0398C47.5865 105.284 51.8092 111.164 59.4816 115.59C75.383 124.771 101.25 124.771 117.152 115.59C124.824 111.164 129.047 105.284 129.047 99.0398C129.047 92.7955 124.824 86.916 117.152 82.4893C109.201 77.9019 98.7589 75.6082 88.3167 75.6082Z" fill="#42E8E0"/>
<path opacity="0.2" d="M88.3166 129.173C74.9871 129.173 61.6639 126.243 51.5123 120.388C41.6512 114.694 36.2168 107.114 36.2168 99.0458C36.2168 90.9776 41.645 83.3979 51.5061 77.7038C71.797 65.988 104.818 65.988 125.109 77.7038C134.97 83.3979 140.404 90.9776 140.404 99.0458C140.404 107.114 134.976 114.694 125.115 120.388C114.969 126.243 101.64 129.173 88.3166 129.173ZM88.3166 69.24C75.049 69.24 61.7814 72.1582 51.6854 77.9882C41.9294 83.6205 36.563 91.0951 36.563 99.0396C36.563 106.984 41.9356 114.465 51.6916 120.091C71.8897 131.751 104.756 131.751 124.96 120.091C134.716 114.459 140.083 106.984 140.083 99.0396C140.083 91.0951 134.71 83.6143 124.954 77.9882C114.846 72.1582 101.578 69.24 88.3166 69.24Z" fill="#42E8E0"/>
<path d="M88.3165 117.791C80.0382 117.791 71.7599 115.973 65.4599 112.332C59.3207 108.789 55.9451 104.066 55.9451 99.0395C55.9451 94.0131 59.3269 89.2897 65.4599 85.7471C78.066 78.4704 98.5733 78.4704 111.173 85.7471C117.312 89.2897 120.688 94.0131 120.688 99.0395C120.688 104.066 117.306 108.789 111.173 112.332C104.873 115.973 96.5949 117.791 88.3165 117.791ZM88.3165 80.6219C80.1 80.6219 71.8835 82.4271 65.6268 86.0377C59.5989 89.5184 56.2789 94.1368 56.2789 99.0395C56.2789 103.942 59.5989 108.56 65.6268 112.041C78.1402 119.262 98.4929 119.262 111.006 112.041C117.034 108.56 120.354 103.942 120.354 99.0395C120.354 94.1368 117.034 89.5184 111.006 86.0377C104.75 82.4271 96.5331 80.6219 88.3165 80.6219Z" fill="#42E8E0"/>
<path d="M124.402 53.8515L124.236 54.1406L125.307 54.7587L125.473 54.4696L124.402 53.8515Z" fill="#42E8E0"/>
<path d="M122.283 53.0244L120.33 51.893L120.496 51.6024L122.45 52.7338L122.283 53.0244ZM118.37 50.7678L116.416 49.6364L116.583 49.3458L118.537 50.4772L118.37 50.7678ZM114.462 48.5112L112.502 47.3798L112.669 47.0892L114.623 48.2206L114.462 48.5112ZM110.549 46.2484L108.595 45.117L108.762 44.8264L110.716 45.9578L110.549 46.2484ZM106.635 43.9918L104.682 42.8604L104.849 42.5698L106.802 43.7012L106.635 43.9918Z" fill="#42E8E0"/>
<path d="M101.804 40.8315L101.637 41.1206L102.707 41.739L102.874 41.4499L101.804 40.8315Z" fill="#42E8E0"/>
<g opacity="0.3">
<path opacity="0.3" d="M164.93 84.715V80.3873L163.731 79.7196C163.391 81.7598 160.986 83.1076 158.977 83.392L145.282 91.3983L139.304 93.556L120.231 83.7135L120.67 83.46C119.038 82.6995 118.16 80.9561 117.282 79.3672L115.996 80.1338L115.236 80.3502V84.7892C115.236 85.6362 115.792 86.4832 116.911 87.1324L136.021 98.1681C138.259 99.4603 141.901 99.4603 144.139 98.1681L163.249 87.1386C164.349 86.5018 164.906 85.6733 164.924 84.8387C164.93 84.7892 164.93 84.7521 164.93 84.715Z" fill="url(#paint0_linear_32_374)"/>
<path opacity="0.3" d="M158.983 83.392L145.289 91.3983L140.089 93.2778V99.1326C141.561 99.1326 143.026 98.8111 144.145 98.1619L163.255 87.1324C164.355 86.4956 164.912 85.6671 164.93 84.8325C164.93 84.7954 164.93 84.7583 164.93 84.7212V80.3935L163.836 79.7876H163.719C163.348 81.7907 160.974 83.1138 158.983 83.392Z" fill="#0F054C"/>
<g opacity="0.3">
<path opacity="0.3" d="M136.027 93.7603L116.917 82.7245C114.679 81.4324 114.679 79.3303 116.917 78.0382L136.027 67.0087C138.265 65.7165 141.907 65.7165 144.145 67.0087L163.255 78.0444C165.493 79.3365 165.493 81.4386 163.255 82.7307L144.145 93.7603C141.907 95.0524 138.265 95.0524 136.027 93.7603Z" fill="url(#paint1_linear_32_374)"/>
</g>
<g opacity="0.3">
<path opacity="0.3" d="M136.027 93.7603L116.917 82.7245C114.679 81.4324 114.679 79.3303 116.917 78.0382L136.027 67.0087C138.265 65.7165 141.907 65.7165 144.145 67.0087L163.255 78.0444C165.493 79.3365 165.493 81.4386 163.255 82.7307L144.145 93.7603C141.907 95.0524 138.265 95.0524 136.027 93.7603Z" fill="#0F054C"/>
</g>
</g>
<path d="M140.089 79.818C138.785 79.818 137.48 79.5336 136.485 78.9587L117.375 67.9229C116.386 67.348 115.835 66.5752 115.835 65.7467C115.835 64.9183 116.38 64.1454 117.375 63.5705L136.485 52.5409C138.47 51.3972 141.703 51.3972 143.688 52.5409L162.798 63.5767C163.787 64.1516 164.337 64.9244 164.337 65.7529C164.337 66.5813 163.793 67.3542 162.798 67.9291L143.688 78.9587C142.698 79.5275 141.394 79.818 140.089 79.818ZM140.089 52.0092C138.847 52.0092 137.604 52.2813 136.658 52.8315L117.548 63.8611C116.664 64.3742 116.175 65.0419 116.175 65.7467C116.175 66.4515 116.664 67.1192 117.548 67.6324L136.658 78.6681C138.55 79.7624 141.635 79.7624 143.527 78.6681L162.637 67.6385C163.521 67.1254 164.009 66.4577 164.009 65.7529C164.009 65.0481 163.521 64.3804 162.637 63.8672L143.527 52.8315C142.575 52.2813 141.332 52.0092 140.089 52.0092Z" fill="#42E8E0"/>
<path opacity="0.4" d="M164.931 61.5123V54.9713L163.731 54.3036C163.391 56.35 160.986 57.6916 158.977 57.976L145.283 65.9823L139.304 68.14L120.231 58.2975L120.67 58.044C119.038 57.2835 118.16 55.5401 117.282 53.9512L115.996 54.7178L115.236 54.9342V61.5865C115.236 62.4335 115.792 63.2805 116.911 63.9297L136.021 74.9654C138.259 76.2576 141.901 76.2576 144.139 74.9654L163.249 63.9359C164.349 63.2991 164.906 62.4706 164.924 61.636C164.931 61.5865 164.931 61.5494 164.931 61.5123Z" fill="#42E8E0"/>
<path d="M164.931 55.694V51.3663L163.731 50.6986C163.391 52.745 160.986 54.0866 158.977 54.371L145.283 62.3773L139.304 64.535L120.232 54.6925L120.67 54.439C119.038 53.6786 118.16 51.9351 117.282 50.3462L115.997 51.1128L115.236 51.3292V55.7682C115.236 56.6152 115.793 57.4622 116.912 58.1114L136.022 69.1471C138.26 70.4393 141.901 70.4393 144.139 69.1471L163.249 58.1176C164.35 57.4808 164.906 56.6523 164.925 55.8177C164.931 55.7682 164.931 55.7311 164.931 55.694Z" fill="url(#paint2_linear_32_374)"/>
<path opacity="0.3" d="M158.983 54.371L145.289 62.3773L140.09 64.2568V70.1116C141.561 70.1116 143.026 69.7901 144.145 69.1409L163.255 58.1114C164.356 57.4746 164.912 56.6461 164.931 55.8115C164.931 55.7744 164.931 55.7373 164.931 55.7002V51.3725L163.837 50.7666H163.719C163.348 52.7697 160.974 54.0928 158.983 54.371Z" fill="#0F054C"/>
<path d="M136.028 64.7453L116.918 53.7157C114.68 52.4236 114.68 50.3216 116.918 49.0294L136.028 37.9999C138.266 36.7077 141.907 36.7077 144.145 37.9999L163.256 49.0356C165.494 50.3277 165.494 52.4298 163.256 53.7219L144.145 64.7515C141.907 66.0374 138.266 66.0374 136.028 64.7453Z" fill="url(#paint3_linear_32_374)"/>
<path d="M163.255 53.7098L144.145 64.7394C141.907 66.0315 138.266 66.0315 136.028 64.7394L116.918 53.7098C115.916 53.1348 115.366 52.3929 115.261 51.6387C115.131 52.5722 115.681 53.5367 116.918 54.2539L136.028 65.2896C138.266 66.5817 141.907 66.5817 144.145 65.2896L163.255 54.26C164.492 53.5429 165.042 52.5846 164.912 51.6449C164.807 52.3929 164.257 53.1348 163.255 53.7098Z" fill="white"/>
<path d="M52.0998 55.206L51.9329 54.9216L75.5932 41.2583L75.7602 41.5489L52.0998 55.206Z" fill="#42E8E0"/>
<g opacity="0.3">
<path opacity="0.3" d="M61.9609 84.7145V80.3868L60.7615 79.7191C60.4215 81.7593 58.0165 83.1071 56.0072 83.3915L42.313 91.3978L36.3345 93.5555L17.2616 83.713L17.7005 83.4595C16.0683 82.6991 15.1904 80.9556 14.3125 79.3667L13.0266 80.1333L12.2661 80.3497V84.7887C12.2661 85.6357 12.8226 86.4827 13.9416 87.1319L33.0516 98.1676C35.2897 99.4598 38.9312 99.4598 41.1692 98.1676L60.2793 87.1381C61.3798 86.5013 61.9362 85.6728 61.9547 84.8382C61.9609 84.7887 61.9609 84.7516 61.9609 84.7145Z" fill="url(#paint4_linear_32_374)"/>
<path opacity="0.3" d="M56.0133 83.392L42.3191 91.3983L37.1196 93.2778V99.1326C38.5911 99.1326 40.0563 98.8111 41.1753 98.1619L60.2854 87.1324C61.3859 86.4956 61.9423 85.6671 61.9608 84.8325C61.9608 84.7954 61.9608 84.7583 61.9608 84.7212V80.3935L60.8666 79.7876H60.7491C60.3781 81.7907 58.0041 83.1138 56.0133 83.392Z" fill="#0F054C"/>
<g opacity="0.3">
<path opacity="0.3" d="M33.0576 93.7598L13.9476 82.724C11.7095 81.4319 11.7095 79.3299 13.9476 78.0377L33.0576 67.0082C35.2957 65.716 38.9372 65.716 41.1752 67.0082L60.2853 78.0439C62.5234 79.336 62.5234 81.4381 60.2853 82.7302L41.1752 93.7598C38.9372 95.0519 35.2957 95.0519 33.0576 93.7598Z" fill="url(#paint5_linear_32_374)"/>
</g>
<g opacity="0.3">
<path opacity="0.3" d="M33.0576 93.7598L13.9476 82.724C11.7095 81.4319 11.7095 79.3299 13.9476 78.0377L33.0576 67.0082C35.2957 65.716 38.9372 65.716 41.1752 67.0082L60.2853 78.0439C62.5234 79.336 62.5234 81.4381 60.2853 82.7302L41.1752 93.7598C38.9372 95.0519 35.2957 95.0519 33.0576 93.7598Z" fill="#0F054C"/>
</g>
</g>
<path d="M37.1201 79.818C35.8156 79.818 34.5111 79.5336 33.5157 78.9587L14.4057 67.9229C13.4165 67.348 12.8662 66.5752 12.8662 65.7467C12.8662 64.9183 13.4103 64.1454 14.4057 63.5705L33.5157 52.5409C35.5003 51.3972 38.7337 51.3972 40.7183 52.5409L59.8284 63.5767C60.8176 64.1516 61.3678 64.9244 61.3678 65.7529C61.3678 66.5813 60.8237 67.3542 59.8284 67.9291L40.7183 78.9587C39.7291 79.5275 38.4246 79.818 37.1201 79.818ZM33.6826 78.6681C35.5745 79.7624 38.6595 79.7624 40.5514 78.6681L59.6614 67.6385C60.5455 67.1254 61.0339 66.4577 61.0339 65.7529C61.0339 65.0481 60.5455 64.3804 59.6614 63.8672L40.5514 52.8315C38.6595 51.7372 35.5745 51.7372 33.6826 52.8315L14.5726 63.8611C13.6885 64.3742 13.2001 65.0419 13.2001 65.7467C13.2001 66.4515 13.6885 67.1192 14.5726 67.6324L33.6826 78.6681Z" fill="#42E8E0"/>
<path opacity="0.4" d="M61.9614 61.5123V54.9713L60.762 54.3036C60.422 56.35 58.017 57.6916 56.0077 57.976L42.3135 65.9823L36.335 68.14L17.2621 58.2975L17.701 58.044C16.0688 57.2835 15.1909 55.5401 14.313 53.9512L13.0271 54.7178L12.2666 54.9342V61.5865C12.2666 62.4335 12.823 63.2805 13.9421 63.9297L33.0521 74.9654C35.2902 76.2576 38.9317 76.2576 41.1697 74.9654L60.2798 63.9359C61.3802 63.2991 61.9367 62.4706 61.9552 61.636C61.9614 61.5865 61.9614 61.5494 61.9614 61.5123Z" fill="#42E8E0"/>
<path d="M61.9614 55.694V51.3663L60.762 50.6986C60.422 52.745 58.017 54.0866 56.0077 54.371L42.3135 62.3773L36.335 64.535L17.2621 54.6925L17.701 54.439C16.0688 53.6786 15.1909 51.9351 14.313 50.3462L13.0271 51.1128L12.2666 51.3292V55.7682C12.2666 56.6152 12.823 57.4622 13.9421 58.1114L33.0521 69.1471C35.2902 70.4393 38.9317 70.4393 41.1697 69.1471L60.2798 58.1176C61.3802 57.4808 61.9367 56.6523 61.9552 55.8177C61.9614 55.7682 61.9614 55.7311 61.9614 55.694Z" fill="url(#paint6_linear_32_374)"/>
<path opacity="0.3" d="M56.0138 54.371L42.3196 62.3773L37.1201 64.2568V70.1116C38.5915 70.1116 40.0568 69.7901 41.1758 69.1409L60.2859 58.1114C61.3864 57.4746 61.9428 56.6461 61.9613 55.8115C61.9613 55.7744 61.9613 55.7373 61.9613 55.7002V51.3725L60.867 50.7666H60.7496C60.3786 52.7697 58.0045 54.0928 56.0138 54.371Z" fill="#0F054C"/>
<path d="M33.0581 64.7453L13.9481 53.7157C11.71 52.4236 11.71 50.3216 13.9481 49.0294L33.0581 37.9999C35.2962 36.7077 38.9377 36.7077 41.1757 37.9999L60.2858 49.0356C62.5238 50.3277 62.5238 52.4298 60.2858 53.7219L41.1757 64.7515C38.9377 66.0374 35.2962 66.0374 33.0581 64.7453Z" fill="url(#paint7_linear_32_374)"/>
<path d="M33.0581 64.7453L13.9481 53.7157C11.71 52.4236 11.71 50.3216 13.9481 49.0294L33.0581 37.9999C35.2962 36.7077 38.9377 36.7077 41.1757 37.9999L60.2858 49.0356C62.5238 50.3277 62.5238 52.4298 60.2858 53.7219L41.1757 64.7515C38.9377 66.0374 35.2962 66.0374 33.0581 64.7453Z" fill="#24126A"/>
<g opacity="0.51">
<path opacity="0.51" d="M33.0581 64.7453L13.9481 53.7157C11.71 52.4236 11.71 50.3216 13.9481 49.0294L33.0581 37.9999C35.2962 36.7077 38.9377 36.7077 41.1757 37.9999L60.2858 49.0356C62.5238 50.3277 62.5238 52.4298 60.2858 53.7219L41.1757 64.7515C38.9377 66.0374 35.2962 66.0374 33.0581 64.7453Z" fill="#453C9E"/>
</g>
<path d="M60.2859 53.7098L41.1759 64.7394C38.9378 66.0315 35.2963 66.0315 33.0582 64.7394L13.9482 53.7098C12.9466 53.1348 12.3964 52.3929 12.2913 51.6387C12.1615 52.5722 12.7117 53.5367 13.9482 54.2539L33.0582 65.2896C35.2963 66.5817 38.9378 66.5817 41.1759 65.2896L60.2859 54.26C61.5224 53.5429 62.0726 52.5846 61.9428 51.6449C61.8377 52.3929 61.2875 53.1348 60.2859 53.7098Z" fill="white"/>
<path d="M103.878 87.424L103.711 87.1334L104.781 86.5151L104.954 86.8057L103.878 87.424Z" fill="#42E8E0"/>
<path d="M106.907 85.6743L106.74 85.3837L108.694 84.2523L108.861 84.5429L106.907 85.6743ZM110.821 83.4177L110.654 83.1271L112.607 81.9957L112.774 82.2863L110.821 83.4177ZM114.734 81.1549L114.567 80.8643L116.521 79.7329L116.688 80.0235L114.734 81.1549ZM118.642 78.8983L118.475 78.6077L120.428 77.4763L120.595 77.7669L118.642 78.8983ZM122.555 76.6417L122.388 76.3511L124.342 75.2197L124.509 75.5103L122.555 76.6417Z" fill="#42E8E0"/>
<path d="M126.469 74.3786L126.302 74.088L127.371 73.4697L127.538 73.7603L126.469 74.3786Z" fill="#42E8E0"/>
<g opacity="0.3">
<path opacity="0.3" d="M113.158 118.583V114.255L111.958 113.587C111.618 115.634 109.213 116.975 107.204 117.26L93.5098 125.266L87.5313 127.424L68.4583 117.581L68.8973 117.328C67.2651 116.567 66.3872 114.824 65.5093 113.235L64.2233 114.001L63.4629 114.218V118.657C63.4629 119.504 64.0193 120.351 65.1384 121L84.2608 132.03C86.4988 133.322 90.1403 133.322 92.3784 132.03L111.488 121C112.589 120.363 113.145 119.535 113.164 118.7C113.158 118.657 113.158 118.62 113.158 118.583Z" fill="url(#paint8_linear_32_374)"/>
<path opacity="0.3" d="M107.21 117.26L93.5159 125.266L88.3164 127.145V133C89.7878 133 91.2531 132.679 92.3721 132.03L111.482 121C112.583 120.363 113.139 119.535 113.158 118.7C113.158 118.663 113.158 118.626 113.158 118.589V114.261L112.063 113.655H111.946C111.581 115.658 109.201 116.981 107.21 117.26Z" fill="#0F054C"/>
<g opacity="0.3">
<path opacity="0.3" d="M84.261 127.633L65.151 116.598C62.9129 115.305 62.9129 113.203 65.151 111.911L84.261 100.882C86.4991 99.5896 90.1406 99.5896 92.3786 100.882L111.489 111.917C113.727 113.21 113.727 115.312 111.489 116.604L92.3786 127.633C90.1344 128.919 86.4991 128.919 84.261 127.633Z" fill="url(#paint9_linear_32_374)"/>
</g>
<g opacity="0.3">
<path opacity="0.3" d="M84.261 127.633L65.151 116.598C62.9129 115.305 62.9129 113.203 65.151 111.911L84.261 100.882C86.4991 99.5896 90.1406 99.5896 92.3786 100.882L111.489 111.917C113.727 113.21 113.727 115.312 111.489 116.604L92.3786 127.633C90.1344 128.919 86.4991 128.919 84.261 127.633Z" fill="#0F054C"/>
</g>
</g>
<path d="M88.3164 111.577C87.0119 111.577 85.7074 111.293 84.712 110.718L65.602 99.6883C64.6128 99.1133 64.0625 98.3405 64.0625 97.5121C64.0625 96.6836 64.6066 95.9108 65.602 95.3359L84.712 84.3063C86.6966 83.1564 89.93 83.1564 91.9146 84.3063L111.025 95.3359C112.014 95.9108 112.564 96.6836 112.564 97.5121C112.564 98.3405 112.02 99.1133 111.025 99.6883L91.9146 110.718C90.9254 111.293 89.6209 111.577 88.3164 111.577ZM88.3164 83.7746C87.0737 83.7746 85.831 84.0466 84.8851 84.5969L65.7751 95.6264C64.891 96.1396 64.4025 96.8073 64.4025 97.5121C64.4025 98.2169 64.891 98.8846 65.7751 99.3977L84.8851 110.427C86.777 111.522 89.862 111.522 91.7538 110.427L110.864 99.3977C111.748 98.8846 112.236 98.2169 112.236 97.5121C112.236 96.8073 111.748 96.1334 110.864 95.6264L91.7538 84.5969C90.8017 84.0466 89.5591 83.7746 88.3164 83.7746Z" fill="#42E8E0"/>
<path opacity="0.4" d="M113.158 93.277V86.7359L111.958 86.0682C111.618 88.1146 109.213 89.4562 107.204 89.7406L93.5098 97.7469L87.5313 99.9046L68.4583 90.0621L68.8973 89.8086C67.2651 89.0482 66.3872 87.3047 65.5093 85.7158L64.2233 86.4824L63.4629 86.6988V93.3512C63.4629 94.1982 64.0193 95.0452 65.1384 95.6943L84.2608 106.724C86.4988 108.016 90.1403 108.016 92.3784 106.724L111.488 95.6943C112.589 95.0576 113.145 94.2291 113.164 93.3945C113.158 93.3512 113.158 93.3141 113.158 93.277Z" fill="#42E8E0"/>
<path d="M113.158 87.4587V83.1309L111.958 82.4632C111.618 84.5096 109.213 85.8512 107.204 86.1356L93.5098 94.1419L87.5313 96.2996L68.4583 86.4571L68.8973 86.2036C67.2651 85.4432 66.3872 83.6997 65.5093 82.1108L64.2233 82.8775L63.4629 83.0939V87.5329C63.4629 88.3799 64.0193 89.2269 65.1384 89.876L84.2608 100.906C86.4988 102.198 90.1403 102.198 92.3784 100.906L111.488 89.876C112.589 89.2392 113.145 88.4108 113.164 87.5762C113.158 87.5329 113.158 87.4958 113.158 87.4587Z" fill="url(#paint10_linear_32_374)"/>
<path opacity="0.3" d="M107.21 86.1361L93.5159 94.1424L88.3164 96.0219V101.877C89.7878 101.877 91.2531 101.555 92.3721 100.906L111.482 89.8765C112.583 89.2397 113.139 88.4113 113.158 87.5766C113.158 87.5396 113.158 87.5025 113.158 87.4654V83.1376L112.063 82.5317H111.946C111.581 84.5349 109.201 85.8579 107.21 86.1361Z" fill="#0F054C"/>
<path d="M84.2605 96.5039L65.1505 85.4682C62.9124 84.176 62.9124 82.074 65.1505 80.7819L84.2605 69.7523C86.4986 68.4602 90.1401 68.4602 92.3781 69.7523L111.488 80.788C113.726 82.0802 113.726 84.1822 111.488 85.4744L92.3781 96.5039C90.1339 97.7961 86.4986 97.7961 84.2605 96.5039Z" fill="url(#paint11_linear_32_374)"/>
<path d="M88.3165 94.5009C87.1356 94.5009 85.961 94.2412 85.0645 93.7219L70.1338 85.1035C69.2373 84.5841 68.7428 83.8855 68.7366 83.1313C68.7366 82.377 69.2312 81.6722 70.1338 81.1529L85.0645 72.5345C86.8574 71.502 89.7755 71.4958 91.5746 72.5345L106.505 81.1529C107.408 81.6722 107.903 82.3708 107.903 83.1251C107.903 83.8793 107.408 84.5841 106.512 85.1035L91.5808 93.7219C90.672 94.2412 89.4973 94.5009 88.3165 94.5009ZM85.2314 93.4375C86.9316 94.4205 89.7014 94.4205 91.4015 93.4375L106.332 84.8191C107.124 84.3616 107.563 83.7619 107.563 83.1313C107.563 82.5007 107.124 81.901 106.332 81.4434L91.4015 72.8251C89.7014 71.8421 86.9316 71.8421 85.2314 72.8251L70.3007 81.4434C69.5094 81.901 69.0704 82.5007 69.0704 83.1313C69.0704 83.7619 69.5094 84.3616 70.3007 84.8191L85.2314 93.4375Z" fill="#5351AF"/>
<path d="M111.482 85.4748L92.3721 96.5043C90.1341 97.7965 86.4926 97.7965 84.2545 96.5043L65.1445 85.4686C64.1429 84.8936 63.5927 84.1517 63.4876 83.3975C63.3577 84.331 63.908 85.2955 65.1445 86.0126L84.2607 97.0484C86.4988 98.3405 90.1403 98.3405 92.3783 97.0484L111.488 86.0188C112.725 85.3017 113.275 84.3434 113.145 83.4036C113.034 84.1579 112.484 84.8936 111.482 85.4748Z" fill="white"/>
<g opacity="0.3">
<path opacity="0.3" d="M113.158 51.7927V47.4649L111.959 46.7972C111.618 48.8374 109.214 50.1852 107.204 50.4696L93.51 58.4759L87.5316 60.6336L68.4586 50.7911L68.8975 50.5376C67.2654 49.7772 66.3875 48.0337 65.5096 46.4448L64.2236 47.2115L63.4631 47.4278V51.8669C63.4631 52.7139 64.0196 53.5609 65.1386 54.21L84.261 65.2396C86.4991 66.5317 90.1406 66.5317 92.3786 65.2396L111.489 54.21C112.589 53.5732 113.146 52.7448 113.164 51.9101C113.158 51.8669 113.158 51.8298 113.158 51.7927Z" fill="url(#paint12_linear_32_374)"/>
<path opacity="0.3" d="M107.21 50.4633L93.5161 58.4696L88.3167 60.3491V66.2039C89.7881 66.2039 91.2533 65.8824 92.3724 65.2332L111.482 54.2037C112.583 53.5669 113.139 52.7384 113.158 51.9038C113.158 51.8667 113.158 51.8296 113.158 51.7925V47.4648L112.064 46.8589H111.946C111.581 48.862 109.201 50.1912 107.21 50.4633Z" fill="#0F054C"/>
<g opacity="0.3">
<path opacity="0.3" d="M84.2613 60.8374L65.1512 49.8079C62.9131 48.5157 62.9131 46.4137 65.1512 45.1215L84.2613 34.0858C86.4993 32.7937 90.1408 32.7937 92.3789 34.0858L111.489 45.1215C113.727 46.4137 113.727 48.5157 111.489 49.8079L92.3789 60.8374C90.1346 62.1295 86.4993 62.1295 84.2613 60.8374Z" fill="url(#paint13_linear_32_374)"/>
</g>
<g opacity="0.3">
<path opacity="0.3" d="M84.2613 60.8374L65.1512 49.8079C62.9131 48.5157 62.9131 46.4137 65.1512 45.1215L84.2613 34.0858C86.4993 32.7937 90.1408 32.7937 92.3789 34.0858L111.489 45.1215C113.727 46.4137 113.727 48.5157 111.489 49.8079L92.3789 60.8374C90.1346 62.1295 86.4993 62.1295 84.2613 60.8374Z" fill="#0F054C"/>
</g>
</g>
<path d="M88.3166 47.6197C87.0121 47.6197 85.7076 47.3353 84.7123 46.7603L65.6022 35.7246C64.613 35.1496 64.0627 34.3768 64.0627 33.5483C64.0627 32.7199 64.6068 31.9471 65.6022 31.3721L84.7123 20.3426C86.6968 19.1988 89.9303 19.1926 91.9148 20.3426L111.025 31.3721C112.014 31.9471 112.564 32.7199 112.564 33.5483C112.564 34.3768 112.02 35.1496 111.025 35.7246L91.9148 46.7541C90.9256 47.3353 89.6211 47.6197 88.3166 47.6197ZM88.3166 19.8109C87.074 19.8109 85.8313 20.0829 84.8854 20.6331L65.7753 31.6627C64.8912 32.1758 64.4028 32.8435 64.4028 33.5483C64.4028 34.2531 64.8912 34.927 65.7753 35.434L84.8854 46.4697C86.7772 47.564 89.8623 47.564 91.7541 46.4697L110.864 35.4402C111.748 34.927 112.237 34.2593 112.237 33.5545C112.237 32.8497 111.748 32.1758 110.864 31.6689L91.7541 20.6393C90.802 20.0829 89.5593 19.8109 88.3166 19.8109Z" fill="#42E8E0"/>
<path opacity="0.4" d="M113.158 29.3131V22.7721L111.958 22.1044C111.618 24.1508 109.213 25.4924 107.204 25.7768L93.5098 33.7831L87.5313 35.9407L68.4583 26.0982L68.8973 25.8448C67.2651 25.0843 66.3872 23.3409 65.5093 21.752L64.2233 22.5186L63.4629 22.735V29.3873C63.4629 30.2343 64.0193 31.0813 65.1384 31.7305L84.2608 42.76C86.4988 44.0522 90.1403 44.0522 92.3784 42.76L111.488 31.7305C112.589 31.0937 113.145 30.2652 113.164 29.4306C113.158 29.3873 113.158 29.3502 113.158 29.3131Z" fill="#42E8E0"/>
<path d="M113.158 23.5017V19.1739L111.958 18.5062C111.618 20.5526 109.213 21.8942 107.204 22.1786L93.5098 30.1849L87.5313 32.3426L68.4583 22.5001L68.8973 22.2466C67.2651 21.4862 66.3872 19.7427 65.5093 18.1538L64.2233 18.9204L63.4629 19.1368V23.5758C63.4629 24.4228 64.0193 25.2699 65.1384 25.919L84.2608 36.9424C86.4988 38.2345 90.1403 38.2345 92.3784 36.9424L111.488 25.9128C112.589 25.276 113.145 24.4476 113.164 23.6129C113.158 23.5759 113.158 23.5388 113.158 23.5017Z" fill="url(#paint14_linear_32_374)"/>
<path opacity="0.3" d="M107.21 22.1723L93.5159 30.1786L88.3164 32.058V37.9129C89.7878 37.9129 91.2531 37.5914 92.3721 36.9422L111.482 25.9127C112.583 25.2759 113.139 24.4474 113.158 23.6128C113.158 23.5757 113.158 23.5386 113.158 23.5015V19.1738L112.063 18.5679H111.946C111.581 20.571 109.201 21.894 107.21 22.1723Z" fill="#0F054C"/>
<path d="M68.9098 22.2407L87.0183 11.7861C87.7355 11.3719 88.8978 11.3719 89.615 11.7861L107.408 22.0552L107.21 22.1727C109.22 21.8945 111.625 20.5467 111.965 18.5003L91.9952 7.39654L86.1837 5.86328L81.4541 8.6454L65.5156 18.1479C66.3997 19.7368 67.2776 21.4802 68.9098 22.2407Z" fill="url(#paint15_linear_32_374)"/>
<path opacity="0.3" d="M88.3166 6.42589L86.1837 5.86328L81.4541 8.6454L65.5156 18.1479C66.3997 19.7368 67.2776 21.4802 68.9036 22.2407L87.0121 11.7861C87.3707 11.5821 87.8406 11.477 88.3104 11.477V6.42589H88.3166Z" fill="#0F054C"/>
<path d="M84.261 32.5464L65.151 21.5107C62.9129 20.2185 62.9129 18.1165 65.151 16.8243L84.261 5.79479C86.4991 4.50265 90.1406 4.50265 92.3786 5.79479L111.489 16.8243C113.727 18.1165 113.727 20.2185 111.489 21.5107L92.3786 32.5402C90.1344 33.8385 86.4991 33.8385 84.261 32.5464ZM89.615 7.38987C88.8979 6.97564 87.7356 6.97564 87.0184 7.38987L67.9083 18.4194C67.1912 18.8336 67.1912 19.5075 67.9083 19.9218L87.0184 30.9575C87.7356 31.3717 88.8979 31.3717 89.615 30.9575L108.725 19.9279C109.442 19.5137 109.442 18.8398 108.725 18.4256L89.615 7.38987Z" fill="url(#paint16_linear_32_374)"/>
<path d="M108.725 18.4196L89.6152 7.38391C88.898 6.96969 87.7357 6.96969 87.0185 7.38391L67.9085 18.4135C67.4324 18.6917 67.2717 19.0812 67.4324 19.4336C67.5128 19.2605 67.6674 19.0935 67.9085 18.9513L87.0185 7.92179C87.7357 7.50756 88.898 7.50756 89.6152 7.92179L108.725 18.9575C108.966 19.0935 109.121 19.2605 109.201 19.4398C109.362 19.0874 109.201 18.6979 108.725 18.4196Z" fill="white"/>
<path d="M111.482 21.5114L92.3724 32.5409C90.1343 33.8331 86.4928 33.8331 84.2548 32.5409L65.1447 21.5052C64.1432 20.9302 63.5929 20.1883 63.4878 19.4341C63.358 20.3676 63.9082 21.3321 65.1447 22.0493L84.261 33.085C86.499 34.3771 90.1405 34.3771 92.3786 33.085L111.489 22.0555C112.725 21.3383 113.275 20.38 113.146 19.4403C113.034 20.1945 112.484 20.9364 111.482 21.5114Z" fill="white"/>
<path d="M84.7989 32.2313L65.6889 21.2017C63.7476 20.0827 63.7476 18.2588 65.6889 17.1398L84.7989 6.11027C86.7402 4.99124 89.8933 4.99124 91.8346 6.11027L110.945 17.146C112.886 18.265 112.886 20.0889 110.945 21.2079L91.8346 32.2374C89.8933 33.3565 86.7402 33.3565 84.7989 32.2313ZM90.153 7.07473C89.139 6.4874 87.4883 6.4874 86.4744 7.07473L67.3644 18.1043C66.3504 18.6916 66.3504 19.6437 67.3644 20.2249L86.4744 31.2606C87.4883 31.8479 89.139 31.8479 90.153 31.2606L109.263 20.2311C110.277 19.6437 110.277 18.6916 109.263 18.1105L90.153 7.07473Z" fill="url(#paint17_linear_32_374)"/>
<path opacity="0.4" d="M89.6147 7.38977C88.8975 6.97554 87.7352 6.97554 87.0181 7.38977L67.908 18.4193C67.1908 18.8335 67.1908 19.5074 67.908 19.9217L87.0181 30.9574C87.7352 31.3716 88.8975 31.3716 89.6147 30.9574L108.725 19.9278C109.442 19.5136 109.442 18.8397 108.725 18.4255L89.6147 7.38977Z" fill="#42E8E0"/>
<g opacity="0.2">
<path opacity="0.2" d="M23.1284 52.0156V74.8475C23.1346 75.3421 23.4375 75.812 24.0496 76.1644L43.0175 87.1198C44.3838 87.9111 46.7702 87.8122 48.3468 86.8972C49.2309 86.3841 49.6698 85.7287 49.6513 85.1105V62.2724L23.1284 52.0156Z" fill="url(#paint18_linear_32_374)"/>
<path opacity="0.3" d="M44.4395 87.5772C45.713 87.7689 47.2278 87.5402 48.3468 86.8972C49.2309 86.384 49.6698 85.7287 49.6513 85.1104V62.2723L44.5384 60.2939H44.4456V87.5772H44.4395Z" fill="#24126A"/>
<path opacity="0.2" d="M43.0176 64.2881L24.0497 53.3328C22.6834 52.5414 22.8565 51.1689 24.433 50.2601C26.0096 49.3512 28.396 49.2523 29.7623 50.0375L48.7302 60.9929C50.0965 61.7842 49.9234 63.1567 48.3469 64.0655C46.7703 64.9806 44.3839 65.0795 43.0176 64.2881Z" fill="url(#paint19_linear_32_374)"/>
</g>
<path opacity="0.5" d="M43.0176 58.4141L24.0497 47.4587C22.6834 46.6674 22.8565 45.2949 24.433 44.386C26.0096 43.4772 28.396 43.3783 29.7623 44.1635L48.7302 55.1188C50.0965 55.9102 49.9234 57.2827 48.3469 58.1915C46.7703 59.1003 44.3839 59.1993 43.0176 58.4141Z" fill="#24126A"/>
<path d="M23.1284 17.4058V40.2377C23.1346 40.7323 23.4375 41.2021 24.0496 41.5607L43.0175 52.5161C44.3838 53.3074 46.7702 53.2085 48.3468 52.2935C49.2309 51.7804 49.6698 51.125 49.6513 50.5068V27.6687L23.1284 17.4058Z" fill="url(#paint20_linear_32_374)"/>
<path opacity="0.3" d="M44.4395 52.9679C45.713 53.1595 47.2278 52.9308 48.3468 52.2878C49.2309 51.7746 49.6698 51.1193 49.6513 50.5011V27.663L44.5384 25.6846H44.4456V52.9679H44.4395Z" fill="#24126A"/>
<path d="M43.0176 29.6783L24.0497 18.7229C22.6834 17.9315 22.8565 16.559 24.433 15.6502C26.0096 14.7414 28.396 14.6425 29.7623 15.4276L48.7302 26.383C50.0965 27.1743 49.9234 28.5469 48.3469 29.4557C46.7703 30.3707 44.3839 30.4696 43.0176 29.6783Z" fill="url(#paint21_linear_32_374)"/>
<path d="M44.9156 28.2131C44.013 28.2131 43.2773 27.4774 43.2773 26.5748V16.4293C43.2773 12.9671 40.7486 8.58373 37.7501 6.85263L33.3977 4.33636C32.2477 3.67484 31.2091 3.50791 30.5475 3.89122C29.886 4.27454 29.5089 5.25137 29.5089 6.58061V16.7261C29.5089 17.6287 28.7732 18.3644 27.8705 18.3644C26.9679 18.3644 26.2322 17.6287 26.2322 16.7261V6.58061C26.2322 4.01488 27.1843 2.04885 28.9092 1.05347C30.6341 0.0580873 32.8103 0.21265 35.036 1.49861L39.3885 4.01488C43.4071 6.33331 46.554 11.7863 46.554 16.4293V26.5748C46.554 27.4774 45.8183 28.2131 44.9156 28.2131Z" fill="url(#paint22_linear_32_374)"/>
<path d="M23.6649 73.0567L0 86.7114L0.166858 87.0006L23.8318 73.3459L23.6649 73.0567Z" fill="#42E8E0"/>
<defs>
<linearGradient id="paint0_linear_32_374" x1="120.186" y1="71.7825" x2="159.61" y2="94.5439" gradientUnits="userSpaceOnUse">
<stop stop-color="#BCBEFF"/>
<stop offset="0.2271" stop-color="#AAADF8"/>
<stop offset="0.6802" stop-color="#7C83E5"/>
<stop offset="1" stop-color="#5761D7"/>
</linearGradient>
<linearGradient id="paint1_linear_32_374" x1="115.242" y1="80.3865" x2="164.932" y2="80.3865" gradientUnits="userSpaceOnUse">
<stop stop-color="#E9E9FD"/>
<stop offset="0.3601" stop-color="#D3D2F9"/>
<stop offset="0.7062" stop-color="#C5C4F7"/>
<stop offset="1" stop-color="#C0BFF6"/>
</linearGradient>
<linearGradient id="paint2_linear_32_374" x1="120.186" y1="42.7638" x2="159.61" y2="65.5252" gradientUnits="userSpaceOnUse">
<stop stop-color="#BCBEFF"/>
<stop offset="0.2271" stop-color="#AAADF8"/>
<stop offset="0.6802" stop-color="#7C83E5"/>
<stop offset="1" stop-color="#5761D7"/>
</linearGradient>
<linearGradient id="paint3_linear_32_374" x1="115.243" y1="51.3677" x2="164.932" y2="51.3677" gradientUnits="userSpaceOnUse">
<stop stop-color="#E9E9FD"/>
<stop offset="0.3601" stop-color="#D3D2F9"/>
<stop offset="0.7062" stop-color="#C5C4F7"/>
<stop offset="1" stop-color="#C0BFF6"/>
</linearGradient>
<linearGradient id="paint4_linear_32_374" x1="17.2164" y1="71.782" x2="56.6403" y2="94.5435" gradientUnits="userSpaceOnUse">
<stop stop-color="#BCBEFF"/>
<stop offset="0.2271" stop-color="#AAADF8"/>
<stop offset="0.6802" stop-color="#7C83E5"/>
<stop offset="1" stop-color="#5761D7"/>
</linearGradient>
<linearGradient id="paint5_linear_32_374" x1="12.2728" y1="80.386" x2="61.9619" y2="80.386" gradientUnits="userSpaceOnUse">
<stop stop-color="#E9E9FD"/>
<stop offset="0.3601" stop-color="#D3D2F9"/>
<stop offset="0.7062" stop-color="#C5C4F7"/>
<stop offset="1" stop-color="#C0BFF6"/>
</linearGradient>
<linearGradient id="paint6_linear_32_374" x1="17.2169" y1="42.7638" x2="56.6408" y2="65.5252" gradientUnits="userSpaceOnUse">
<stop stop-color="#BCBEFF"/>
<stop offset="0.2271" stop-color="#AAADF8"/>
<stop offset="0.6802" stop-color="#7C83E5"/>
<stop offset="1" stop-color="#5761D7"/>
</linearGradient>
<linearGradient id="paint7_linear_32_374" x1="12.2733" y1="51.3677" x2="61.9624" y2="51.3677" gradientUnits="userSpaceOnUse">
<stop stop-color="#E9E9FD"/>
<stop offset="0.3601" stop-color="#D3D2F9"/>
<stop offset="0.7062" stop-color="#C5C4F7"/>
<stop offset="1" stop-color="#C0BFF6"/>
</linearGradient>
<linearGradient id="paint8_linear_32_374" x1="68.4148" y1="105.652" x2="107.839" y2="128.413" gradientUnits="userSpaceOnUse">
<stop stop-color="#BCBEFF"/>
<stop offset="0.2271" stop-color="#AAADF8"/>
<stop offset="0.6802" stop-color="#7C83E5"/>
<stop offset="1" stop-color="#5761D7"/>
</linearGradient>
<linearGradient id="paint9_linear_32_374" x1="63.4717" y1="114.255" x2="113.161" y2="114.255" gradientUnits="userSpaceOnUse">
<stop stop-color="#E9E9FD"/>
<stop offset="0.3601" stop-color="#D3D2F9"/>
<stop offset="0.7062" stop-color="#C5C4F7"/>
<stop offset="1" stop-color="#C0BFF6"/>
</linearGradient>
<linearGradient id="paint10_linear_32_374" x1="68.4148" y1="74.5264" x2="107.839" y2="97.2878" gradientUnits="userSpaceOnUse">
<stop stop-color="#BCBEFF"/>
<stop offset="0.2271" stop-color="#AAADF8"/>
<stop offset="0.6802" stop-color="#7C83E5"/>
<stop offset="1" stop-color="#5761D7"/>
</linearGradient>
<linearGradient id="paint11_linear_32_374" x1="63.4712" y1="83.1303" x2="113.16" y2="83.1303" gradientUnits="userSpaceOnUse">
<stop stop-color="#E9E9FD"/>
<stop offset="0.3601" stop-color="#D3D2F9"/>
<stop offset="0.7062" stop-color="#C5C4F7"/>
<stop offset="1" stop-color="#C0BFF6"/>
</linearGradient>
<linearGradient id="paint12_linear_32_374" x1="68.4151" y1="38.8592" x2="107.839" y2="61.6206" gradientUnits="userSpaceOnUse">
<stop stop-color="#BCBEFF"/>
<stop offset="0.2271" stop-color="#AAADF8"/>
<stop offset="0.6802" stop-color="#7C83E5"/>
<stop offset="1" stop-color="#5761D7"/>
</linearGradient>
<linearGradient id="paint13_linear_32_374" x1="63.4719" y1="47.4627" x2="113.161" y2="47.4627" gradientUnits="userSpaceOnUse">
<stop stop-color="#E9E9FD"/>
<stop offset="0.3601" stop-color="#D3D2F9"/>
<stop offset="0.7062" stop-color="#C5C4F7"/>
<stop offset="1" stop-color="#C0BFF6"/>
</linearGradient>
<linearGradient id="paint14_linear_32_374" x1="68.4148" y1="10.5667" x2="107.839" y2="33.3281" gradientUnits="userSpaceOnUse">
<stop stop-color="#BCBEFF"/>
<stop offset="0.2271" stop-color="#AAADF8"/>
<stop offset="0.6802" stop-color="#7C83E5"/>
<stop offset="1" stop-color="#5761D7"/>
</linearGradient>
<linearGradient id="paint15_linear_32_374" x1="70.781" y1="9.03409" x2="105.939" y2="29.3327" gradientUnits="userSpaceOnUse">
<stop offset="0.2421" stop-color="#5761D7"/>
<stop offset="0.3923" stop-color="#7A82E5"/>
<stop offset="0.5463" stop-color="#979CF0"/>
<stop offset="0.7" stop-color="#ACAFF8"/>
<stop offset="0.8519" stop-color="#B8BAFD"/>
<stop offset="1" stop-color="#BCBEFF"/>
</linearGradient>
<linearGradient id="paint16_linear_32_374" x1="63.4717" y1="19.1702" x2="113.161" y2="19.1702" gradientUnits="userSpaceOnUse">
<stop stop-color="#E9E9FD"/>
<stop offset="0.3601" stop-color="#D3D2F9"/>
<stop offset="0.7062" stop-color="#C5C4F7"/>
<stop offset="1" stop-color="#C0BFF6"/>
</linearGradient>
<linearGradient id="paint17_linear_32_374" x1="64.2346" y1="19.1703" x2="112.398" y2="19.1703" gradientUnits="userSpaceOnUse">
<stop stop-color="#E9E9FD"/>
<stop offset="0.3601" stop-color="#D3D2F9"/>
<stop offset="0.7062" stop-color="#C5C4F7"/>
<stop offset="1" stop-color="#C0BFF6"/>
</linearGradient>
<linearGradient id="paint18_linear_32_374" x1="26.4519" y1="69.8339" x2="52.9737" y2="69.8339" gradientUnits="userSpaceOnUse">
<stop stop-color="#BCBEFF"/>
<stop offset="0.1443" stop-color="#B4B7FC"/>
<stop offset="0.3696" stop-color="#9EA2F3"/>
<stop offset="0.6461" stop-color="#7A81E5"/>
<stop offset="0.873" stop-color="#5761D7"/>
</linearGradient>
<linearGradient id="paint19_linear_32_374" x1="-1.49905" y1="57.1648" x2="63.9487" y2="57.1648" gradientUnits="userSpaceOnUse">
<stop stop-color="#E9E9FD"/>
<stop offset="0.3601" stop-color="#D3D2F9"/>
<stop offset="0.7062" stop-color="#C5C4F7"/>
<stop offset="1" stop-color="#C0BFF6"/>
</linearGradient>
<linearGradient id="paint20_linear_32_374" x1="26.4519" y1="35.2253" x2="52.9737" y2="35.2253" gradientUnits="userSpaceOnUse">
<stop stop-color="#BCBEFF"/>
<stop offset="0.1443" stop-color="#B4B7FC"/>
<stop offset="0.3696" stop-color="#9EA2F3"/>
<stop offset="0.6461" stop-color="#7A81E5"/>
<stop offset="0.873" stop-color="#5761D7"/>
</linearGradient>
<linearGradient id="paint21_linear_32_374" x1="-1.49905" y1="22.5563" x2="63.9487" y2="22.5563" gradientUnits="userSpaceOnUse">
<stop stop-color="#E9E9FD"/>
<stop offset="0.3601" stop-color="#D3D2F9"/>
<stop offset="0.7062" stop-color="#C5C4F7"/>
<stop offset="1" stop-color="#C0BFF6"/>
</linearGradient>
<linearGradient id="paint22_linear_32_374" x1="16.586" y1="10.5791" x2="63.985" y2="18.7194" gradientUnits="userSpaceOnUse">
<stop stop-color="#BCBEFF"/>
<stop offset="0.1443" stop-color="#B4B7FC"/>
<stop offset="0.3696" stop-color="#9EA2F3"/>
<stop offset="0.6461" stop-color="#7A81E5"/>
<stop offset="0.873" stop-color="#5761D7"/>
</linearGradient>
</defs>
</svg>
